# Blender 4.0.2
# www.blender.org
mtllib Book.mtl
o BookSide
v 0.500000 0.000000 -0.966000
v 0.950000 -0.000000 -0.016000
v 0.500000 -0.000000 -0.016000
v 0.950000 0.000000 -0.966000
v 0.500000 -0.000000 0.014000
v 1.000000 -0.000000 0.014000
v 1.000000 -0.000000 -0.016000
v 0.050000 -0.000000 -0.016000
v 0.050000 0.000000 -0.966000
v -0.000000 -0.000000 0.014000
v 0.000000 -0.000000 -0.016000
v 0.500000 -0.100000 -0.016000
v 0.500000 -0.100000 -1.016000
v 1.000000 -0.100000 -1.016000
v 1.000000 -0.100000 -0.016000
v 0.500000 -0.080000 -0.016000
v 0.950000 -0.080000 -0.016000
v 0.500000 -0.080000 -1.016000
v 1.000000 -0.080000 -1.016000
v 0.500000 -0.080000 -0.966000
v 1.000000 -0.080000 -0.016000
v 0.950000 -0.080000 -0.966000
v 0.500000 -0.100000 0.014000
v 1.000000 -0.100000 0.014000
v 0.000000 -0.100000 -1.016000
v 0.000000 -0.100000 -0.016000
v 0.050000 -0.080000 -0.016000
v 0.000000 -0.080000 -1.016000
v 0.000000 -0.080000 -0.016000
v 0.050000 -0.080000 -0.966000
v -0.000000 -0.100000 0.014000
vn -0.0000 -1.0000 -0.0000
vn -0.0000 -0.0000 1.0000
vn -0.0000 -0.0000 -1.0000
vn 1.0000 -0.0000 -0.0000
vn -1.0000 -0.0000 -0.0000
vn -0.0000 1.0000 -0.0000
vt 0.344828 0.000000
vt 0.344828 0.332226
vt 0.517241 0.332226
vt 0.517241 0.000000
vt 0.827586 0.481728
vt 0.827586 0.631229
vt 0.855172 0.631229
vt 0.855172 0.481728
vt 0.882759 0.000000
vt 0.882759 0.149502
vt 0.910345 0.149502
vt 0.910345 0.000000
vt 0.765517 0.332226
vt 0.765517 0.498339
vt 0.772414 0.498339
vt 0.772414 0.332226
vt 0.844828 1.000000
vt 0.844828 0.684385
vt 0.689655 0.684385
vt 0.689655 1.000000
vt 0.689655 0.009967
vt 0.689655 0.342193
vt 0.696552 0.342193
vt 0.696552 0.009967
vt 0.772414 0.647841
vt 0.800000 0.647841
vt 0.800000 0.332226
vt 0.344828 0.342193
vt 0.517241 0.342193
vt 0.758621 0.166113
vt 0.758621 0.332226
vt 0.793103 0.332226
vt 0.793103 0.166113
vt 0.724138 0.009967
vt 0.696552 0.026578
vt 0.724138 0.026578
vt 0.724138 0.000000
vt 0.689655 0.000000
vt 0.689655 0.000000
vt 0.689655 0.332226
vt 0.855172 0.332226
vt 0.827586 0.332226
vt 0.882759 0.299003
vt 0.910345 0.299003
vt 0.765517 0.664452
vt 0.772414 0.664452
vt 1.000000 1.000000
vt 1.000000 0.684385
vt 0.689655 0.674419
vt 0.696552 0.674419
vt 0.827586 0.315615
vt 0.855172 0.315615
vt 0.855172 0.000000
vt 0.827586 0.000000
vt 0.689655 0.342193
vt 0.793103 0.000000
vt 0.758621 0.000000
vt 0.724138 0.674419
vt 0.724138 0.657807
vt 0.696552 0.657807
vt 0.689655 0.684385
vt 0.724138 0.684385
vt 0.672414 0.358804
vt 0.672414 0.674419
vt 0.689655 0.674419
vt 0.517241 0.358804
vt 0.362069 0.358804
vt 0.344828 0.674419
vt 0.362069 0.674419
vt 0.000000 0.000000
s 0
usemtl Pages
f 22/9/3 20/10/3 1/11/3 4/12/3
f 17/16/4 22/25/4 4/26/4 2/27/4
f 30/43/3 9/44/3 1/11/3 20/10/3
f 27/51/5 8/52/5 9/53/5 30/54/5
f 4/26/6 9/53/6 8/52/6 2/27/6
usemtl Cover
f 14/1/1 15/2/1 12/3/1 13/4/1
f 16/5/2 17/6/2 2/7/2 3/8/2
f 14/13/3 13/14/3 18/15/3 19/16/3
f 16/17/1 20/18/1 22/19/1 17/20/1
f 15/21/4 14/22/4 19/23/4 21/24/4
f 12/3/1 15/2/1 24/28/1 23/29/1
f 23/30/2 24/31/2 6/32/2 5/33/2
f 7/34/3 21/24/3 17/35/3 2/36/3
f 21/24/4 7/34/4 6/37/4 24/38/4 15/21/4
f 25/39/1 13/4/1 12/3/1 26/40/1
f 16/5/2 3/8/2 8/41/2 27/42/2
f 25/45/3 28/46/3 18/15/3 13/14/3
f 16/17/1 27/47/1 30/48/1 20/18/1
f 26/49/5 29/50/5 28/23/5 25/22/5
f 12/3/1 23/29/1 31/55/1 26/40/1
f 23/30/2 5/33/2 10/56/2 31/57/2
f 11/58/3 8/59/3 27/60/3 29/50/3
f 29/50/5 26/49/5 31/61/5 10/62/5 11/58/5
f 19/55/6 22/63/6 17/64/6 21/65/6
f 18/29/6 20/66/6 22/63/6 19/55/6
f 28/28/6 30/67/6 20/66/6 18/29/6
f 29/68/6 27/69/6 30/67/6 28/28/6
f 10/62/6 5/33/6 3/70/6 11/58/6
f 5/33/6 6/37/6 7/34/6 3/70/6
