# Blender 4.0.2
# www.blender.org
mtllib Pistol.mtl
g Plane_Plane
v 0.380000 0.810530 0.080529
v 0.380000 0.070529 0.080529
v 0.380000 0.810530 -0.079471
v 0.380000 0.070529 -0.079471
v 0.260000 0.790529 0.100529
v 0.260000 -0.009471 0.100529
v 0.260000 0.790529 -0.099471
v 0.260000 -0.009471 -0.099471
v 0.344000 0.046529 0.032529
v 0.344000 0.046529 -0.031471
v 0.296000 0.014529 0.040529
v 0.296000 0.014529 -0.039471
v 0.399470 -0.036676 0.032529
v 0.399470 -0.036676 -0.031471
v 0.351470 -0.068676 0.040529
v 0.351470 -0.068676 -0.039471
v 0.350000 0.805530 -0.031471
v 0.350000 0.805530 0.032529
v 0.290000 0.795529 -0.039471
v 0.290000 0.795529 0.040529
v 0.350000 0.605530 -0.031471
v 0.350000 0.605530 0.032529
v 0.290000 0.595529 -0.039471
v 0.290000 0.595529 0.040529
vn 1.0000 -0.0000 -0.0000
vn -1.0000 -0.0000 -0.0000
vn 0.1644 -0.0000 0.9864
vn 0.5547 -0.8321 -0.0000
vn -0.1644 0.9864 -0.0000
vn 0.1644 -0.0000 -0.9864
vn 0.1143 0.0762 0.9905
vn 0.8321 0.5547 -0.0000
vn 0.1143 0.0762 -0.9905
vn -0.8321 -0.5547 -0.0000
vn -0.1322 -0.0000 -0.9912
vn -0.1322 -0.0000 0.9912
vt 0.856148 0.195255
vt 0.856148 0.375865
vt 1.000000 0.375865
vt 1.000000 0.195255
vt 0.364471 0.792623
vt 0.364471 0.987878
vt 0.544285 0.987878
vt 0.544285 0.792623
vt 0.724007 0.581857
vt 0.832640 0.575627
vt 0.832640 0.381336
vt 0.724007 0.402138
vt 0.871527 0.400862
vt 0.904221 0.447723
vt 0.947814 0.439913
vt 0.980508 0.381336
vt 0.963898 0.000000
vt 0.936960 0.058576
vt 0.936960 0.136678
vt 0.963898 0.195255
vt 0.832783 0.020802
vt 0.724151 0.000000
vt 0.724151 0.194291
vt 0.832783 0.200521
vt 0.760542 0.299540
vt 0.760542 0.241707
vt 0.737997 0.200521
vt 0.737997 0.258354
vt 0.980508 0.576591
vt 0.947814 0.518014
vt 0.904221 0.510204
vt 0.871527 0.557065
vt 0.856005 0.510204
vt 0.899598 0.518014
vt 0.899598 0.439913
vt 0.856005 0.447723
vt 0.810238 0.680876
vt 0.759930 0.680876
vt 0.759930 0.743358
vt 0.810238 0.743358
vt 0.782475 0.639690
vt 0.782475 0.581857
vt 0.759930 0.623043
vt 0.759930 0.680876
vt 0.836591 0.299540
vt 0.791871 0.300687
vt 0.791871 0.358833
vt 0.836591 0.357686
vt 0.856148 0.175729
vt 0.883086 0.128868
vt 0.883086 0.066387
vt 0.856148 0.019525
vt 0.737997 0.369831
vt 0.791872 0.377642
vt 0.791872 0.299540
vt 0.737997 0.307350
vt 0.782475 0.644339
vt 0.827429 0.644339
vt 0.827429 0.581857
vt 0.782475 0.581857
vt 0.805496 0.277476
vt 0.850215 0.278623
vt 0.850215 0.220477
vt 0.805496 0.219330
vt 0.805496 0.200521
vt 0.760542 0.200521
vt 0.760542 0.278623
vt 0.805496 0.278623
s 0
f 1/1/1 2/2/1 4/3/1 3/4/1
f 5/5/2 7/6/2 8/7/2 6/8/2
f 1/9/3 5/10/3 6/11/3 2/12/3
f 4/13/4 10/14/4 12/15/4 8/16/4
f 5/17/5 20/18/5 19/19/5 7/20/5
f 4/21/6 8/22/6 7/23/6 3/24/6
f 11/25/7 15/26/7 13/27/7 9/28/7
f 6/29/4 11/30/4 9/31/4 2/32/4
f 8/16/4 12/15/4 11/30/4 6/29/4
f 2/32/4 9/31/4 10/14/4 4/13/4
f 13/33/4 15/34/4 16/35/4 14/36/4
f 9/37/8 13/38/8 14/39/8 10/40/8
f 10/41/9 14/42/9 16/43/9 12/44/9
f 12/15/10 16/35/10 15/34/10 11/30/10
f 18/45/11 22/46/11 24/47/11 20/48/11
f 3/49/5 17/50/5 18/51/5 1/52/5
f 7/20/5 19/19/5 17/50/5 3/49/5
f 1/52/5 18/51/5 20/18/5 5/17/5
f 21/53/5 23/54/5 24/55/5 22/56/5
f 17/57/2 21/58/2 22/59/2 18/60/2
f 19/61/12 23/62/12 21/63/12 17/64/12
f 20/65/1 24/66/1 23/67/1 19/68/1
g Plane.001_Plane.001
v 0.210000 0.790530 0.100529
v 0.210000 -0.009471 0.100529
v 0.210000 0.790530 -0.099471
v 0.210000 -0.009471 -0.099471
v 0.260000 0.790529 0.100529
v 0.260000 -0.009471 0.100529
v 0.260000 0.790529 -0.099471
v 0.260000 -0.009471 -0.099471
v 0.210000 0.390529 0.100529
v 0.210000 0.390529 -0.099471
v 0.210000 0.190529 0.100529
v 0.210000 0.190529 -0.099471
v -0.178057 0.093515 0.100529
v -0.178057 -0.106485 0.100529
v -0.178057 -0.106485 -0.099471
v -0.128057 -0.106485 0.100529
v -0.128057 -0.106485 -0.099471
v -0.178057 0.093515 -0.099471
v 0.015972 0.142022 0.100529
v 0.015972 0.142022 -0.099471
v 0.135560 0.344914 0.033529
v 0.135560 0.344914 -0.032471
v 0.010411 0.207638 0.033529
v 0.010411 0.207638 -0.032471
v 0.155560 0.334914 0.033529
v 0.155560 0.334914 -0.032471
v 0.030411 0.197638 0.033529
v 0.030411 0.197638 -0.032471
v -0.178057 0.073515 0.080529
v -0.178057 -0.086485 0.080529
v -0.178057 -0.086485 -0.079471
v -0.178057 0.073515 -0.079471
v 0.191943 0.163515 0.080529
v 0.191943 0.003515 0.080529
v 0.191943 0.003515 -0.079471
v 0.191943 0.163515 -0.079471
vn -0.0000 -0.0000 -1.0000
vn 1.0000 -0.0000 -0.0000
vn -0.0000 -0.0000 1.0000
vn -0.0000 1.0000 -0.0000
vn -1.0000 -0.0000 -0.0000
vn -0.0000 -1.0000 -0.0000
vn -0.2425 0.9701 -0.0000
vn 0.2425 -0.9701 -0.0000
vn 0.9964 0.0844 -0.0000
vn -0.5225 0.8526 -0.0000
vn 0.7390 -0.6737 -0.0000
vn 0.4472 0.8944 -0.0000
vn -0.4472 -0.8944 -0.0000
vn -0.3000 -0.5999 0.7417
vn -0.3000 -0.5999 -0.7417
vn -0.3426 -0.6853 -0.6427
vn 0.7146 -0.6995 -0.0000
vn -0.7390 0.6737 -0.0000
vn -0.9679 0.2513 -0.0000
vn 0.2364 -0.9717 -0.0000
vn -0.2364 0.9717 -0.0000
vt 0.179464 0.060898
vt 0.182268 0.012180
vt 0.182268 0.391768
vt 0.179464 0.440487
vt 0.000000 0.802208
vt 0.177419 0.802208
vt 0.177419 0.997463
vt 0.000000 0.997463
vt 0.364537 0.048719
vt 0.274805 0.054808
vt 0.229939 0.057853
vt 0.185073 0.060898
vt 0.182269 0.012180
vt 0.361733 0.000000
vt 0.229939 0.247648
vt 0.229939 0.437442
vt 0.185073 0.440487
vt 0.957703 0.745595
vt 0.957703 0.940849
vt 0.912782 0.940849
vt 0.912782 0.745595
vt 0.134598 0.057853
vt 0.089732 0.054808
vt 0.000000 0.048719
vt 0.002804 0.000000
vt 0.323600 0.804745
vt 0.323600 1.000000
vt 0.233693 1.000000
vt 0.233693 0.804745
vt 0.188739 1.000000
vt 0.188739 0.804745
vt 0.867829 0.745595
vt 0.912782 0.745595
vt 0.908287 0.765120
vt 0.872324 0.765120
vt 0.544255 0.428365
vt 0.364537 0.428283
vt 0.364618 0.379514
vt 0.544336 0.379595
vt 0.182269 0.391768
vt 0.544336 0.191598
vt 0.724151 0.191598
vt 0.724151 0.381336
vt 0.544336 0.381336
vt 0.364537 0.000000
vt 0.544255 0.000082
vt 0.134598 0.437442
vt 0.134598 0.247648
vt 0.544336 0.001860
vt 0.724151 0.001860
vt 0.651206 0.938512
vt 0.651206 0.743258
vt 0.666571 0.808668
vt 0.666571 0.873102
vt 0.688111 0.745867
vt 0.748652 0.818857
vt 0.807959 0.818767
vt 0.808971 0.942260
vt 0.749664 0.942349
vt 0.663913 0.196412
vt 0.604574 0.196412
vt 0.604574 0.176994
vt 0.663913 0.176994
vt 0.748726 0.799453
vt 0.808033 0.799363
vt 0.604574 0.073045
vt 0.604574 0.053627
vt 0.544336 0.000000
vt 0.724151 0.000000
vt 0.663913 0.053627
vt 0.663913 0.073045
vt 0.731074 0.200521
vt 0.737997 0.218706
vt 0.737997 0.345395
vt 0.731074 0.327210
vt 0.724151 0.218706
vt 0.731074 0.200521
vt 0.731074 0.327210
vt 0.724151 0.345395
vt 0.684034 0.810671
vt 0.666571 0.747373
vt 0.684034 0.743258
vt 0.912782 0.940849
vt 0.867829 0.940849
vt 0.872324 0.921324
vt 0.908287 0.921324
vt 0.724007 0.743225
vt 0.688111 0.745595
vt 0.688111 0.383707
vt 0.724007 0.381336
vt 0.323600 0.804745
vt 0.287703 0.802375
vt 0.287703 0.440487
vt 0.323600 0.442857
vt 0.688111 0.743258
vt 0.544336 0.743165
vt 0.544336 0.381336
vt 0.688111 0.381429
vt 0.508389 0.790160
vt 0.364537 0.790160
vt 0.364537 0.428365
vt 0.508389 0.428365
s 0
f 28/69/13 32/70/13 41/71/13 39/72/13
f 29/73/14 30/74/14 32/75/14 31/76/14
f 25/77/15 33/78/15 35/79/15 26/80/15 30/81/15 29/82/15
f 26/80/15 35/79/15 43/83/15 37/84/15 38/85/15
f 27/86/16 25/87/16 29/88/16 31/89/16
f 28/69/13 36/90/13 34/91/13 27/92/13 31/93/13 32/70/13
f 25/94/17 27/95/17 34/96/17 33/97/17
f 33/97/17 34/96/17 36/98/17 35/99/17
f 38/100/17 37/101/17 53/102/17 54/103/17
f 38/104/18 39/105/18 41/106/18 40/107/18
f 30/81/15 26/80/15 38/85/15 40/108/15
f 43/109/19 44/110/19 42/111/19 37/112/19
f 32/113/20 30/114/20 40/107/20 41/106/20
f 36/90/13 28/69/13 39/72/13 42/115/13 44/116/13
f 35/117/19 36/118/19 44/110/19 43/109/19
f 43/119/21 44/120/21 48/121/21 47/122/21
f 34/123/22 46/124/22 45/125/22 33/100/22
f 45/125/23 47/126/23 48/127/23 46/124/23
f 48/128/24 47/129/24 51/130/24 52/131/24
f 45/125/25 46/124/25 50/132/25 49/133/25
f 45/134/26 49/135/26 33/136/26
f 34/137/27 50/138/27 46/139/27
f 50/140/15 46/141/15 48/142/15 52/143/15
f 45/144/13 49/145/13 51/146/13 47/147/13
f 43/148/28 47/149/28 51/150/28
f 34/137/29 33/136/29 49/135/29 50/138/29
f 50/138/30 52/131/30 51/130/30 49/135/30
f 52/131/31 44/110/31 43/109/31 51/130/31
f 42/151/17 39/152/17 55/153/17 56/154/17
f 39/152/17 38/100/17 54/103/17 55/153/17
f 37/101/17 42/151/17 56/154/17 53/102/17
f 56/155/15 55/156/15 59/157/15 60/158/15
f 54/159/13 53/160/13 57/161/13 58/162/13
f 53/163/32 56/164/32 60/165/32 57/166/32
f 55/167/33 54/168/33 58/169/33 59/170/33
g Clip_Plane.002
v -0.178057 0.073515 0.080529
v -0.178057 -0.086485 0.080529
v -0.178057 -0.086485 -0.079471
v -0.178057 0.073515 -0.079471
v 0.191943 0.163515 0.080529
v 0.191943 0.003515 0.080529
v 0.191943 0.003515 -0.079471
v 0.191943 0.163515 -0.079471
v -0.198057 0.073515 0.080529
v -0.198057 -0.086485 0.080529
v -0.198057 -0.086485 -0.079471
v -0.198057 0.073515 -0.079471
v -0.175057 0.127515 0.104529
v -0.175057 -0.110485 0.104529
v -0.175057 -0.110485 -0.103471
v -0.175057 0.127515 -0.103471
v -0.201057 0.127515 0.104529
v -0.201057 -0.110485 0.104529
v -0.201057 -0.110485 -0.103471
v -0.201057 0.127515 -0.103471
vn -0.0000 -0.0000 -1.0000
vn 1.0000 -0.0000 -0.0000
vn -0.0000 -0.0000 1.0000
vn -0.2364 0.9717 -0.0000
vn 0.2364 -0.9717 -0.0000
vn 0.9923 -0.0000 -0.1240
vn 0.9923 -0.0000 0.1240
vn -0.9923 0.1240 -0.0000
vn -0.9985 -0.0555 -0.0000
vn -1.0000 -0.0000 -0.0000
vn -0.0000 1.0000 -0.0000
vn -0.0000 -1.0000 -0.0000
vn -0.9923 -0.0000 0.1240
vn 0.9985 -0.0555 -0.0000
vn -0.9923 -0.0000 -0.1240
vn 0.9923 0.1240 -0.0000
vt 0.544285 0.790253
vt 0.544285 0.428365
vt 0.508389 0.430735
vt 0.508389 0.792623
vt 0.759930 0.581857
vt 0.724007 0.581857
vt 0.724007 0.738061
vt 0.759930 0.738061
vt 0.359496 0.804745
vt 0.359496 0.442857
vt 0.323600 0.440487
vt 0.323600 0.802375
vt 0.143852 0.802208
vt 0.143852 0.440487
vt 0.000000 0.440487
vt 0.000000 0.802208
vt 0.287703 0.802208
vt 0.287703 0.440487
vt 0.143852 0.440487
vt 0.143852 0.802208
vt 0.556332 0.922892
vt 0.544336 0.946323
vt 0.597771 0.946323
vt 0.592255 0.922892
vt 0.592255 0.766688
vt 0.597771 0.743258
vt 0.544336 0.743258
vt 0.556332 0.766688
vt 0.645690 0.922892
vt 0.651206 0.946322
vt 0.651206 0.743258
vt 0.645690 0.766688
vt 0.609767 0.766688
vt 0.597771 0.743258
vt 0.597771 0.946322
vt 0.609767 0.922892
vt 0.810238 0.738964
vt 0.833614 0.738964
vt 0.833614 0.680876
vt 0.810238 0.680876
vt 0.323600 0.862834
vt 0.346976 0.862834
vt 0.346976 0.804745
vt 0.323600 0.804745
vt 0.832640 0.584401
vt 0.856005 0.584401
vt 0.856005 0.381336
vt 0.832640 0.381336
vt 0.832783 0.203065
vt 0.856148 0.203065
vt 0.856148 0.000000
vt 0.832783 0.000000
s 0
f 64/171/34 68/172/34 67/173/34 63/174/34
f 65/175/35 66/176/35 67/177/35 68/178/35
f 62/179/36 66/180/36 65/181/36 61/182/36
f 61/183/37 65/184/37 68/185/37 64/186/37
f 63/187/38 67/188/38 66/189/38 62/190/38
f 61/191/39 73/192/39 74/193/39 62/194/39
f 63/195/40 75/196/40 76/197/40 64/198/40
f 71/199/41 79/200/41 78/201/41 70/202/41
f 69/203/42 77/204/42 80/205/42 72/206/42
f 69/203/43 72/206/43 71/199/43 70/202/43
f 75/207/34 79/208/34 80/209/34 76/210/34
f 73/211/36 77/212/36 78/213/36 74/214/36
f 76/215/44 80/216/44 77/217/44 73/218/44
f 74/219/45 78/220/45 79/221/45 75/222/45
f 72/206/46 80/205/46 79/200/46 71/199/46
f 64/198/47 76/197/47 73/192/47 61/191/47
f 70/202/48 78/201/48 77/204/48 69/203/48
f 62/194/49 74/193/49 75/196/49 63/195/49
